<svg t="1682650557849" class="icon" viewBox="0 0 1024 1024" version="1.1" xmlns="http://www.w3.org/2000/svg" p-id="3489" width="200" height="200"><path d="M538.608 744.992l139.36-88.416-139.136-107.68-0.224 196.096z m139.328-372.32l-138.816-101.44-0.208 195.04 139.024-93.6zM291.488 336.96l9.952-12.496a16 16 0 0 1 22.304-2.688l166.784 129.088 0.272-242.88a16 16 0 0 1 25.44-12.88l226.72 165.744a16 16 0 0 1-0.48 26.192l-178.848 120.4 179.68 139.056a16 16 0 0 1-1.216 26.16l-227.36 144.256a16 16 0 0 1-24.592-13.52l0.272-246.656-167.36 112.672a16 16 0 0 1-22.08-4.16l-9.072-13.104a16 16 0 0 1 4.224-22.384l185.664-125.008-187.584-145.168a16 16 0 0 1-2.72-22.624z" fill="#e6e6e6" p-id="3490"></path></svg>